<?xml version="1.0" encoding="utf-8"?>
<svg xmlns="http://www.w3.org/2000/svg" style="margin: auto; background: none; display: block; shape-rendering: auto;" width="286" height="71" preserveAspectRatio="xMidYMid">
<style type="text/css">
  text {
    text-anchor: middle; font-size: 48px; opacity: 0;
  }
</style>
<g style="transform-origin: 143px 35.5px; transform: scale(0.607595);">
<g transform="translate(143,35.5)">
  <g transform="translate(0,0)"><g class="path" style="transform: scale(0.91); transform-origin: -188.1px -6.23662px; animation: 1s linear -0.594s infinite normal forwards running breath-ec21a51f-ac6a-4247-9ab2-4fae71063d5f;"><path d="M6.16 0L6.16-55.30L25.60-55.30L25.60-55.30Q33.10-55.30 36.77-50.72L36.77-50.72L36.77-50.72Q40.45-46.14 40.45-38.39L40.45-38.39L40.45-38.39Q40.45-33.42 39.66-29.43L39.66-29.43L39.66-29.43Q38.87-25.44 35.71-22.40L35.71-22.40L35.71-22.40Q32.55-19.36 26.15-19.36L26.15-19.36L10.59-19.36L10.59 0L6.16 0zM26.23-23.70L26.23-23.70Q30.65-23.70 32.82-26.07L32.82-26.07L32.82-26.07Q35.00-28.44 35.51-31.44L35.51-31.44L35.51-31.44Q36.02-34.44 36.02-38.16L36.02-38.16L36.02-38.16Q36.02-44.63 33.34-47.87L33.34-47.87L33.34-47.87Q30.65-51.11 25.91-51.11L25.91-51.11L10.59-51.11L10.59-23.70L26.23-23.70" fill="#ffffff" stroke="none" stroke-width="none" transform="translate(-211.40496826171875,21.413378051757817)" style="fill: rgb(255, 255, 255);"></path></g><g class="path" style="transform: scale(0.91); transform-origin: -145.005px -6.23662px; animation: 1s linear -0.528s infinite normal forwards running breath-ec21a51f-ac6a-4247-9ab2-4fae71063d5f;"><path d="M79.08 0L72.36-19.59L72.36-19.59Q70.94-19.36 69.20-19.36L69.20-19.36L53.64-19.36L53.64 0L49.22 0L49.22-55.30L68.65-55.30L68.65-55.30Q76.16-55.30 79.83-50.72L79.83-50.72L79.83-50.72Q83.50-46.14 83.50-38.39L83.50-38.39L83.50-38.39Q83.50-32.47 82.20-27.89L82.20-27.89L82.20-27.89Q80.90-23.30 76.55-20.93L76.55-20.93L83.58 0L79.08 0zM69.28-23.70L69.28-23.70Q73.71-23.70 75.88-26.07L75.88-26.07L75.88-26.07Q78.05-28.44 78.57-31.44L78.57-31.44L78.57-31.44Q79.08-34.44 79.08-38.16L79.08-38.16L79.08-38.16Q79.08-44.63 76.39-47.87L76.39-47.87L76.39-47.87Q73.71-51.11 68.97-51.11L68.97-51.11L53.64-51.11L53.64-23.70L69.28-23.70" fill="#ffffff" stroke="none" stroke-width="none" transform="translate(-211.40496826171875,21.413378051757817)" style="fill: rgb(255, 255, 255);"></path></g><g class="path" style="transform: scale(0.91); transform-origin: -104.44px -6.23662px; animation: 1s linear -0.462s infinite normal forwards running breath-ec21a51f-ac6a-4247-9ab2-4fae71063d5f;"><path d="M93.77 0L93.77-55.30L120.16-55.30L120.16-51.19L98.20-51.19L98.20-32.63L113.29-32.63L111.78-28.28L98.20-28.28L98.20-3.95L120.00-3.95L120.00 0L93.77 0" fill="#ffffff" stroke="none" stroke-width="none" transform="translate(-211.40496826171875,21.413378051757817)" style="fill: rgb(255, 255, 255);"></path></g><g class="path" style="transform: scale(0.91); transform-origin: -65.375px -6.19662px; animation: 1s linear -0.396s infinite normal forwards running breath-ec21a51f-ac6a-4247-9ab2-4fae71063d5f;"><path d="M131.77-14.06L131.77-14.06Q132.01-11.38 133.79-8.93L133.79-8.93L133.79-8.93Q135.56-6.48 138.68-4.94L138.68-4.94L138.68-4.94Q141.80-3.40 145.83-3.40L145.83-3.40L145.83-3.40Q151.92-3.40 155.99-6.12L155.99-6.12L155.99-6.12Q160.05-8.85 160.05-14.77L160.05-14.77L160.05-14.77Q160.05-18.25 158.08-20.58L158.08-20.58L158.08-20.58Q156.10-22.91 153.18-24.29L153.18-24.29L153.18-24.29Q150.26-25.68 145.20-27.49L145.20-27.49L145.20-27.49Q139.75-29.39 136.47-31.01L136.47-31.01L136.47-31.01Q133.19-32.63 130.94-35.39L130.94-35.39L130.94-35.39Q128.69-38.16 128.69-42.50L128.69-42.50L128.69-42.50Q128.69-45.98 130.67-49.10L130.67-49.10L130.67-49.10Q132.64-52.22 136.63-54.15L136.63-54.15L136.63-54.15Q140.62-56.09 146.47-56.09L146.47-56.09L146.47-56.09Q150.34-56.09 152.86-55.54L152.86-55.54L152.86-55.54Q155.39-54.98 158-53.72L158-53.72L156.66-49.53L156.66-49.53Q152.15-51.82 146.62-51.82L146.62-51.82L146.62-51.82Q140.54-51.82 136.91-49.30L136.91-49.30L136.91-49.30Q133.27-46.77 133.27-42.27L133.27-42.27L133.27-42.27Q133.27-39.42 135.09-37.49L135.09-37.49L135.09-37.49Q136.91-35.55 139.55-34.37L139.55-34.37L139.55-34.37Q142.20-33.18 146.94-31.52L146.94-31.52L146.94-31.52Q152.71-29.55 156.26-27.85L156.26-27.85L156.26-27.85Q159.82-26.15 162.31-23.03L162.31-23.03L162.31-23.03Q164.79-19.91 164.79-15.17L164.79-15.17L164.79-15.17Q164.79-7.90 160.17-3.52L160.17-3.52L160.17-3.52Q155.55 0.87 145.91 0.87L145.91 0.87L145.91 0.87Q140.07 0.87 135.92-1.30L135.92-1.30L135.92-1.30Q131.77-3.48 129.60-6.91L129.60-6.91L129.60-6.91Q127.43-10.35 127.27-14.06L127.27-14.06L131.77-14.06" fill="#ffffff" stroke="none" stroke-width="none" transform="translate(-211.40496826171875,21.413378051757817)" style="fill: rgb(255, 255, 255);"></path></g><g class="path" style="transform: scale(0.91); transform-origin: -21.055px -6.19662px; animation: 1s linear -0.33s infinite normal forwards running breath-ec21a51f-ac6a-4247-9ab2-4fae71063d5f;"><path d="M176.09-14.06L176.09-14.06Q176.33-11.38 178.11-8.93L178.11-8.93L178.11-8.93Q179.88-6.48 183.00-4.94L183.00-4.94L183.00-4.94Q186.12-3.40 190.15-3.40L190.15-3.40L190.15-3.40Q196.24-3.40 200.30-6.12L200.30-6.12L200.30-6.12Q204.37-8.85 204.37-14.77L204.37-14.77L204.37-14.77Q204.37-18.25 202.40-20.58L202.40-20.58L202.40-20.58Q200.42-22.91 197.50-24.29L197.50-24.29L197.50-24.29Q194.58-25.68 189.52-27.49L189.52-27.49L189.52-27.49Q184.07-29.39 180.79-31.01L180.79-31.01L180.79-31.01Q177.51-32.63 175.26-35.39L175.26-35.39L175.26-35.39Q173.01-38.16 173.01-42.50L173.01-42.50L173.01-42.50Q173.01-45.98 174.98-49.10L174.98-49.10L174.98-49.10Q176.96-52.22 180.95-54.15L180.95-54.15L180.95-54.15Q184.94-56.09 190.78-56.09L190.78-56.09L190.78-56.09Q194.66-56.09 197.18-55.54L197.18-55.54L197.18-55.54Q199.71-54.98 202.32-53.72L202.32-53.72L200.98-49.53L200.98-49.53Q196.47-51.82 190.94-51.82L190.94-51.82L190.94-51.82Q184.86-51.82 181.23-49.30L181.23-49.30L181.23-49.30Q177.59-46.77 177.59-42.27L177.59-42.27L177.59-42.27Q177.59-39.42 179.41-37.49L179.41-37.49L179.41-37.49Q181.23-35.55 183.87-34.37L183.87-34.37L183.87-34.37Q186.52-33.18 191.26-31.52L191.26-31.52L191.26-31.52Q197.03-29.55 200.58-27.85L200.58-27.85L200.58-27.85Q204.14-26.15 206.62-23.03L206.62-23.03L206.62-23.03Q209.11-19.91 209.11-15.17L209.11-15.17L209.11-15.17Q209.11-7.90 204.49-3.52L204.49-3.52L204.49-3.52Q199.87 0.87 190.23 0.87L190.23 0.87L190.23 0.87Q184.39 0.87 180.24-1.30L180.24-1.30L180.24-1.30Q176.09-3.48 173.92-6.91L173.92-6.91L173.92-6.91Q171.75-10.35 171.59-14.06L171.59-14.06L176.09-14.06" fill="#ffffff" stroke="none" stroke-width="none" transform="translate(-211.40496826171875,21.413378051757817)" style="fill: rgb(255, 255, 255);"></path></g><g class="path" style="transform: scale(0.91); transform-origin: 45.225px -6.19662px; animation: 1s linear -0.264s infinite normal forwards running breath-ec21a51f-ac6a-4247-9ab2-4fae71063d5f;"><path d="M242.37-14.06L242.37-14.06Q242.61-11.38 244.39-8.93L244.39-8.93L244.39-8.93Q246.16-6.48 249.28-4.94L249.28-4.94L249.28-4.94Q252.40-3.40 256.43-3.40L256.43-3.40L256.43-3.40Q262.52-3.40 266.59-6.12L266.59-6.12L266.59-6.12Q270.65-8.85 270.65-14.77L270.65-14.77L270.65-14.77Q270.65-18.25 268.68-20.58L268.68-20.58L268.68-20.58Q266.70-22.91 263.78-24.29L263.78-24.29L263.78-24.29Q260.86-25.68 255.80-27.49L255.80-27.49L255.80-27.49Q250.35-29.39 247.07-31.01L247.07-31.01L247.07-31.01Q243.79-32.63 241.54-35.39L241.54-35.39L241.54-35.39Q239.29-38.16 239.29-42.50L239.29-42.50L239.29-42.50Q239.29-45.98 241.27-49.10L241.27-49.10L241.27-49.10Q243.24-52.22 247.23-54.15L247.23-54.15L247.23-54.15Q251.22-56.09 257.07-56.09L257.07-56.09L257.07-56.09Q260.94-56.09 263.46-55.54L263.46-55.54L263.46-55.54Q265.99-54.98 268.60-53.72L268.60-53.72L267.26-49.53L267.26-49.53Q262.75-51.82 257.22-51.82L257.22-51.82L257.22-51.82Q251.14-51.82 247.51-49.30L247.51-49.30L247.51-49.30Q243.87-46.77 243.87-42.27L243.87-42.27L243.87-42.27Q243.87-39.42 245.69-37.49L245.69-37.49L245.69-37.49Q247.51-35.55 250.15-34.37L250.15-34.37L250.15-34.37Q252.80-33.18 257.54-31.52L257.54-31.52L257.54-31.52Q263.31-29.55 266.86-27.85L266.86-27.85L266.86-27.85Q270.42-26.15 272.91-23.03L272.91-23.03L272.91-23.03Q275.39-19.91 275.39-15.17L275.39-15.17L275.39-15.17Q275.39-7.90 270.77-3.52L270.77-3.52L270.77-3.52Q266.15 0.87 256.51 0.87L256.51 0.87L256.51 0.87Q250.67 0.87 246.52-1.30L246.52-1.30L246.52-1.30Q242.37-3.48 240.20-6.91L240.20-6.91L240.20-6.91Q238.03-10.35 237.87-14.06L237.87-14.06L242.37-14.06" fill="#ffffff" stroke="none" stroke-width="none" transform="translate(-211.40496826171875,21.413378051757817)" style="fill: rgb(255, 255, 255);"></path></g><g class="path" style="transform: scale(0.91); transform-origin: 83.735px -6.23662px; animation: 1s linear -0.198s infinite normal forwards running breath-ec21a51f-ac6a-4247-9ab2-4fae71063d5f;"><path d="M292.69 0L292.69-51.35L279.26-51.35L279.26-55.30L311.02-55.30L311.02-51.35L297.12-51.35L297.12 0L292.69 0" fill="#ffffff" stroke="none" stroke-width="none" transform="translate(-211.40496826171875,21.413378051757817)" style="fill: rgb(255, 255, 255);"></path></g><g class="path" style="transform: scale(0.91); transform-origin: 120.515px -6.23662px; animation: 1s linear -0.132s infinite normal forwards running breath-ec21a51f-ac6a-4247-9ab2-4fae71063d5f;"><path d="M347.13 0L340.81-19.36L322.79-19.36L316.63 0L311.97 0L329.67-55.30L333.85-55.30L351.87 0L347.13 0zM331.72-48.43L324.06-23.70L339.62-23.70L331.72-48.43" fill="#ffffff" stroke="none" stroke-width="none" transform="translate(-211.40496826171875,21.413378051757817)" style="fill: rgb(255, 255, 255);"></path></g><g class="path" style="transform: scale(0.91); transform-origin: 164.595px -6.23662px; animation: 1s linear -0.066s infinite normal forwards running breath-ec21a51f-ac6a-4247-9ab2-4fae71063d5f;"><path d="M388.68 0L381.96-19.59L381.96-19.59Q380.54-19.36 378.80-19.36L378.80-19.36L363.24-19.36L363.24 0L358.82 0L358.82-55.30L378.25-55.30L378.25-55.30Q385.76-55.30 389.43-50.72L389.43-50.72L389.43-50.72Q393.10-46.14 393.10-38.39L393.10-38.39L393.10-38.39Q393.10-32.47 391.80-27.89L391.80-27.89L391.80-27.89Q390.50-23.30 386.15-20.93L386.15-20.93L393.18 0L388.68 0zM378.88-23.70L378.88-23.70Q383.31-23.70 385.48-26.07L385.48-26.07L385.48-26.07Q387.65-28.44 388.17-31.44L388.17-31.44L388.17-31.44Q388.68-34.44 388.68-38.16L388.68-38.16L388.68-38.16Q388.68-44.63 385.99-47.87L385.99-47.87L385.99-47.87Q383.31-51.11 378.57-51.11L378.57-51.11L363.24-51.11L363.24-23.70L378.88-23.70" fill="#ffffff" stroke="none" stroke-width="none" transform="translate(-211.40496826171875,21.413378051757817)" style="fill: rgb(255, 255, 255);"></path></g><g class="path" style="transform: scale(0.91); transform-origin: 201.685px -6.23662px; animation: 1s linear 0s infinite normal forwards running breath-ec21a51f-ac6a-4247-9ab2-4fae71063d5f;"><path d="M410.64 0L410.64-51.35L397.21-51.35L397.21-55.30L428.97-55.30L428.97-51.35L415.07-51.35L415.07 0L410.64 0" fill="#ffffff" stroke="none" stroke-width="none" transform="translate(-211.40496826171875,21.413378051757817)" style="fill: rgb(255, 255, 255);"></path></g></g>
</g>
</g>
<style id="breath-ec21a51f-ac6a-4247-9ab2-4fae71063d5f" data-anikit="">@keyframes breath-ec21a51f-ac6a-4247-9ab2-4fae71063d5f
{
  0% {
    animation-timing-function: cubic-bezier(0.9647,0.2413,-0.0705,0.7911);
    transform: scale(0.9099999999999999);
  }
  51% {
    animation-timing-function: cubic-bezier(0.9226,0.2631,-0.0308,0.7628);
    transform: scale(1.02994);
  }
  100% {
    transform: scale(0.9099999999999999);
  }
}</style></svg>