<?xml version="1.0" encoding="utf-8"?>
<svg xmlns="http://www.w3.org/2000/svg" style="margin: auto; display: block; shape-rendering: auto;" width="206" height="46" preserveAspectRatio="xMidYMid">
<style type="text/css">
  text {
    text-anchor: middle; font-size: 23px; opacity: 0;
  }
</style>
<g style="transform-origin:103px 23px;transform:scale(1)">
<g transform="translate(103,23)">
  <g transform="translate(0,0)"><g class="path" style="transform: scale(0.91); transform-origin: -79.025px -1.85511px; animation: 1s linear -0.605s infinite normal forwards running breath-c763e7b9-a61b-4014-828a-50d6d5db2e7b;"><path d="M2.07 0L2.07-16.05L2.07-16.05Q3.04-16.17 4.15-16.23L4.15-16.23L4.15-16.23Q5.27-16.28 6.51-16.28L6.51-16.28L6.51-16.28Q8.00-16.28 9.18-15.92L9.18-15.92L9.18-15.92Q10.35-15.55 11.15-14.90L11.15-14.90L11.15-14.90Q11.96-14.26 12.37-13.35L12.37-13.35L12.37-13.35Q12.79-12.44 12.79-11.38L12.79-11.38L12.79-11.38Q12.79-10.10 12.29-9.10L12.29-9.10L12.29-9.10Q11.80-8.10 10.91-7.41L10.91-7.41L10.91-7.41Q10.03-6.72 8.79-6.36L8.79-6.36L8.79-6.36Q7.54-6.00 6.05-6.00L6.05-6.00L6.05-6.00Q5.08-6.00 4.25-6.07L4.25-6.07L4.25 0L2.07 0zM6.33-7.82L6.33-7.82L6.33-7.82Q8.39-7.82 9.51-8.73L9.51-8.73L9.51-8.73Q10.63-9.64 10.63-11.20L10.63-11.20L10.63-11.20Q10.63-12.70 9.56-13.57L9.56-13.57L9.56-13.57Q8.49-14.44 6.46-14.44L6.46-14.44L6.46-14.44Q5.84-14.44 5.29-14.42L5.29-14.42L5.29-14.42Q4.74-14.40 4.25-14.35L4.25-14.35L4.25-7.93L4.25-7.93Q4.62-7.89 5.14-7.85L5.14-7.85L5.14-7.85Q5.66-7.82 6.33-7.82" fill="#ffffff" stroke="none" stroke-width="none" transform="translate(-86.45498657226562,6.284884821573897)" style="fill: rgb(255, 255, 255);"></path></g><g class="path" style="transform: scale(0.91); transform-origin: -65.31px -1.71511px; animation: 1s linear -0.55s infinite normal forwards running breath-c763e7b9-a61b-4014-828a-50d6d5db2e7b;"><path d="M26.86-0.69L24.82 0.28L22.82-4.09L22.82-4.09Q22.06-5.73 20.91-6.42L20.91-6.42L20.91-6.42Q19.76-7.11 17.96-7.11L17.96-7.11L17.62-7.11L17.62 0L15.43 0L15.43-16.05L15.43-16.05Q16.68-16.17 17.77-16.23L17.77-16.23L17.77-16.23Q18.86-16.28 20.15-16.28L20.15-16.28L20.15-16.28Q21.62-16.28 22.72-15.97L22.72-15.97L22.72-15.97Q23.83-15.66 24.56-15.09L24.56-15.09L24.56-15.09Q25.30-14.51 25.68-13.73L25.68-13.73L25.68-13.73Q26.06-12.95 26.06-12.01L26.06-12.01L26.06-12.01Q26.06-10.33 25.06-9.30L25.06-9.30L25.06-9.30Q24.06-8.28 22.17-7.77L22.17-7.77L22.17-7.77Q22.63-7.57 23.02-7.30L23.02-7.30L23.02-7.30Q23.41-7.04 23.76-6.66L23.76-6.66L23.76-6.66Q24.10-6.28 24.44-5.75L24.44-5.75L24.44-5.75Q24.77-5.22 25.12-4.46L25.12-4.46L26.86-0.69zM20.15-14.44L20.15-14.44L20.15-14.44Q19.37-14.44 18.74-14.42L18.74-14.42L18.74-14.42Q18.12-14.40 17.62-14.35L17.62-14.35L17.62-8.95L20.15-8.95L20.15-8.95Q21.80-8.95 22.84-9.68L22.84-9.68L22.84-9.68Q23.87-10.42 23.87-11.80L23.87-11.80L23.87-11.80Q23.87-12.95 22.91-13.70L22.91-13.70L22.91-13.70Q21.94-14.44 20.15-14.44" fill="#ffffff" stroke="none" stroke-width="none" transform="translate(-86.45498657226562,6.284884821573897)" style="fill: rgb(255, 255, 255);"></path></g><g class="path" style="transform: scale(0.91); transform-origin: -52.005px -1.76511px; animation: 1s linear -0.495s infinite normal forwards running breath-c763e7b9-a61b-4014-828a-50d6d5db2e7b;"><path d="M29.62 0L29.62-16.10L39.28-16.10L39.28-14.21L31.81-14.21L31.81-9.31L38.25-9.31L38.25-7.47L31.81-7.47L31.81-1.89L39.28-1.89L39.28 0L29.62 0" fill="#ffffff" stroke="none" stroke-width="none" transform="translate(-86.45498657226562,6.284884821573897)" style="fill: rgb(255, 255, 255);"></path></g><g class="path" style="transform: scale(0.91); transform-origin: -39.835px -1.76511px; animation: 1s linear -0.44s infinite normal forwards running breath-c763e7b9-a61b-4014-828a-50d6d5db2e7b;"><path d="M41.01-1.36L42.11-3.20L42.11-3.20Q42.94-2.51 43.98-2.07L43.98-2.07L43.98-2.07Q45.01-1.63 46.39-1.63L46.39-1.63L46.39-1.63Q48.05-1.63 49.01-2.32L49.01-2.32L49.01-2.32Q49.98-3.01 49.98-4.19L49.98-4.19L49.98-4.19Q49.98-4.67 49.84-5.08L49.84-5.08L49.84-5.08Q49.70-5.50 49.30-5.88L49.30-5.88L49.30-5.88Q48.90-6.26 48.17-6.64L48.17-6.64L48.17-6.64Q47.45-7.01 46.30-7.45L46.30-7.45L46.30-7.45Q45.06-7.93 44.19-8.41L44.19-8.41L44.19-8.41Q43.33-8.88 42.80-9.44L42.80-9.44L42.80-9.44Q42.27-10.00 42.04-10.68L42.04-10.68L42.04-10.68Q41.81-11.36 41.81-12.24L41.81-12.24L41.81-12.24Q41.81-13.09 42.17-13.85L42.17-13.85L42.17-13.85Q42.53-14.61 43.23-15.17L43.23-15.17L43.23-15.17Q43.93-15.73 44.95-16.05L44.95-16.05L44.95-16.05Q45.98-16.38 47.29-16.38L47.29-16.38L47.29-16.38Q48.71-16.38 49.84-16.09L49.84-16.09L49.84-16.09Q50.97-15.80 52.07-15.27L52.07-15.27L51.27-13.41L51.27-13.41Q50.48-13.87 49.44-14.18L49.44-14.18L49.44-14.18Q48.39-14.49 47.24-14.49L47.24-14.49L47.24-14.49Q45.72-14.49 44.85-13.90L44.85-13.90L44.85-13.90Q43.98-13.32 43.98-12.35L43.98-12.35L43.98-12.35Q43.98-11.89 44.10-11.53L44.10-11.53L44.10-11.53Q44.23-11.18 44.61-10.84L44.61-10.84L44.61-10.84Q44.99-10.51 45.67-10.17L45.67-10.17L45.67-10.17Q46.34-9.82 47.47-9.41L47.47-9.41L47.47-9.41Q48.81-8.90 49.73-8.37L49.73-8.37L49.73-8.37Q50.65-7.84 51.20-7.25L51.20-7.25L51.20-7.25Q51.75-6.65 51.99-5.96L51.99-5.96L51.99-5.96Q52.23-5.27 52.23-4.44L52.23-4.44L52.23-4.44Q52.23-3.31 51.80-2.44L51.80-2.44L51.80-2.44Q51.36-1.56 50.59-0.95L50.59-0.95L50.59-0.95Q49.82-0.34 48.74-0.03L48.74-0.03L48.74-0.03Q47.66 0.28 46.39 0.28L46.39 0.28L46.39 0.28Q44.71 0.28 43.33-0.17L43.33-0.17L43.33-0.17Q41.95-0.62 41.01-1.36L41.01-1.36" fill="#ffffff" stroke="none" stroke-width="none" transform="translate(-86.45498657226562,6.284884821573897)" style="fill: rgb(255, 255, 255);"></path></g><g class="path" style="transform: scale(0.91); transform-origin: -26.77px -1.76511px; animation: 1s linear -0.385s infinite normal forwards running breath-c763e7b9-a61b-4014-828a-50d6d5db2e7b;"><path d="M54.07-1.36L55.18-3.20L55.18-3.20Q56.01-2.51 57.04-2.07L57.04-2.07L57.04-2.07Q58.08-1.63 59.46-1.63L59.46-1.63L59.46-1.63Q61.11-1.63 62.08-2.32L62.08-2.32L62.08-2.32Q63.04-3.01 63.04-4.19L63.04-4.19L63.04-4.19Q63.04-4.67 62.91-5.08L62.91-5.08L62.91-5.08Q62.77-5.50 62.36-5.88L62.36-5.88L62.36-5.88Q61.96-6.26 61.24-6.64L61.24-6.64L61.24-6.64Q60.51-7.01 59.36-7.45L59.36-7.45L59.36-7.45Q58.12-7.93 57.26-8.41L57.26-8.41L57.26-8.41Q56.40-8.88 55.87-9.44L55.87-9.44L55.87-9.44Q55.34-10.00 55.11-10.68L55.11-10.68L55.11-10.68Q54.88-11.36 54.88-12.24L54.88-12.24L54.88-12.24Q54.88-13.09 55.23-13.85L55.23-13.85L55.23-13.85Q55.59-14.61 56.29-15.17L56.29-15.17L56.29-15.17Q56.99-15.73 58.02-16.05L58.02-16.05L58.02-16.05Q59.04-16.38 60.35-16.38L60.35-16.38L60.35-16.38Q61.78-16.38 62.91-16.09L62.91-16.09L62.91-16.09Q64.03-15.80 65.14-15.27L65.14-15.27L64.33-13.41L64.33-13.41Q63.55-13.87 62.50-14.18L62.50-14.18L62.50-14.18Q61.46-14.49 60.31-14.49L60.31-14.49L60.31-14.49Q58.79-14.49 57.91-13.90L57.91-13.90L57.91-13.90Q57.04-13.32 57.04-12.35L57.04-12.35L57.04-12.35Q57.04-11.89 57.17-11.53L57.17-11.53L57.17-11.53Q57.29-11.18 57.67-10.84L57.67-10.84L57.67-10.84Q58.05-10.51 58.73-10.17L58.73-10.17L58.73-10.17Q59.41-9.82 60.54-9.41L60.54-9.41L60.54-9.41Q61.87-8.90 62.79-8.37L62.79-8.37L62.79-8.37Q63.71-7.84 64.26-7.25L64.26-7.25L64.26-7.25Q64.81-6.65 65.06-5.96L65.06-5.96L65.06-5.96Q65.30-5.27 65.30-4.44L65.30-4.44L65.30-4.44Q65.30-3.31 64.86-2.44L64.86-2.44L64.86-2.44Q64.42-1.56 63.65-0.95L63.65-0.95L63.65-0.95Q62.88-0.34 61.80-0.03L61.80-0.03L61.80-0.03Q60.72 0.28 59.46 0.28L59.46 0.28L59.46 0.28Q57.78 0.28 56.40-0.17L56.40-0.17L56.40-0.17Q55.02-0.62 54.07-1.36L54.07-1.36" fill="#ffffff" stroke="none" stroke-width="none" transform="translate(-86.45498657226562,6.284884821573897)" style="fill: rgb(255, 255, 255);"></path></g><g class="path" style="transform: scale(0.91); transform-origin: -6.83998px -1.76511px; animation: 1s linear -0.33s infinite normal forwards running breath-c763e7b9-a61b-4014-828a-50d6d5db2e7b;"><path d="M73.58-14.17L73.58-16.10L85.65-16.10L85.65-14.17L80.71-14.17L80.71 0L78.52 0L78.52-14.17L73.58-14.17" fill="#ffffff" stroke="none" stroke-width="none" transform="translate(-86.45498657226562,6.284884821573897)" style="fill: rgb(255, 255, 255);"></path></g><g class="path" style="transform: scale(0.91); transform-origin: 7.49001px -1.76511px; animation: 1s linear -0.275s infinite normal forwards running breath-c763e7b9-a61b-4014-828a-50d6d5db2e7b;"><path d="M86.34-8.07L86.34-8.07L86.34-8.07Q86.34-9.84 86.86-11.36L86.86-11.36L86.86-11.36Q87.38-12.88 88.35-14.00L88.35-14.00L88.35-14.00Q89.33-15.11 90.74-15.74L90.74-15.74L90.74-15.74Q92.14-16.38 93.93-16.38L93.93-16.38L93.93-16.38Q95.70-16.38 97.12-15.72L97.12-15.72L97.12-15.72Q98.53-15.06 99.51-13.94L99.51-13.94L99.51-13.94Q100.49-12.81 101.02-11.30L101.02-11.30L101.02-11.30Q101.55-9.80 101.55-8.07L101.55-8.07L101.55-8.07Q101.55-6.35 101.03-4.83L101.03-4.83L101.03-4.83Q100.51-3.31 99.52-2.17L99.52-2.17L99.52-2.17Q98.53-1.03 97.13-0.38L97.13-0.38L97.13-0.38Q95.73 0.28 93.93 0.28L93.93 0.28L93.93 0.28Q92.14 0.28 90.74-0.38L90.74-0.38L90.74-0.38Q89.33-1.03 88.35-2.17L88.35-2.17L88.35-2.17Q87.38-3.31 86.86-4.83L86.86-4.83L86.86-4.83Q86.34-6.35 86.34-8.07zM88.57-8.07L88.57-8.07L88.57-8.07Q88.57-6.83 88.93-5.66L88.93-5.66L88.93-5.66Q89.29-4.49 89.98-3.59L89.98-3.59L89.98-3.59Q90.67-2.69 91.67-2.15L91.67-2.15L91.67-2.15Q92.67-1.61 93.93-1.61L93.93-1.61L93.93-1.61Q95.27-1.61 96.27-2.10L96.27-2.10L96.27-2.10Q97.27-2.60 97.95-3.46L97.95-3.46L97.95-3.46Q98.62-4.32 98.97-5.51L98.97-5.51L98.97-5.51Q99.31-6.69 99.31-8.07L99.31-8.07L99.31-8.07Q99.31-9.31 98.95-10.46L98.95-10.46L98.95-10.46Q98.58-11.62 97.89-12.51L97.89-12.51L97.89-12.51Q97.20-13.41 96.20-13.95L96.20-13.95L96.20-13.95Q95.20-14.49 93.93-14.49L93.93-14.49L93.93-14.49Q92.67-14.49 91.67-14.00L91.67-14.00L91.67-14.00Q90.67-13.50 89.98-12.64L89.98-12.64L89.98-12.64Q89.29-11.78 88.93-10.60L88.93-10.60L88.93-10.60Q88.57-9.43 88.57-8.07" fill="#ffffff" stroke="none" stroke-width="none" transform="translate(-86.45498657226562,6.284884821573897)" style="fill: rgb(255, 255, 255);"></path></g><g class="path" style="transform: scale(0.91); transform-origin: 29.445px -1.76511px; animation: 1s linear -0.22s infinite normal forwards running breath-c763e7b9-a61b-4014-828a-50d6d5db2e7b;"><path d="M110.29-1.36L111.39-3.20L111.39-3.20Q112.22-2.51 113.25-2.07L113.25-2.07L113.25-2.07Q114.29-1.63 115.67-1.63L115.67-1.63L115.67-1.63Q117.32-1.63 118.29-2.32L118.29-2.32L118.29-2.32Q119.26-3.01 119.26-4.19L119.26-4.19L119.26-4.19Q119.26-4.67 119.12-5.08L119.12-5.08L119.12-5.08Q118.98-5.50 118.58-5.88L118.58-5.88L118.58-5.88Q118.17-6.26 117.45-6.64L117.45-6.64L117.45-6.64Q116.73-7.01 115.58-7.45L115.58-7.45L115.58-7.45Q114.33-7.93 113.47-8.41L113.47-8.41L113.47-8.41Q112.61-8.88 112.08-9.44L112.08-9.44L112.08-9.44Q111.55-10.00 111.32-10.68L111.32-10.68L111.32-10.68Q111.09-11.36 111.09-12.24L111.09-12.24L111.09-12.24Q111.09-13.09 111.45-13.85L111.45-13.85L111.45-13.85Q111.80-14.61 112.50-15.17L112.50-15.17L112.50-15.17Q113.21-15.73 114.23-16.05L114.23-16.05L114.23-16.05Q115.25-16.38 116.56-16.38L116.56-16.38L116.56-16.38Q117.99-16.38 119.12-16.09L119.12-16.09L119.12-16.09Q120.24-15.80 121.35-15.27L121.35-15.27L120.54-13.41L120.54-13.41Q119.76-13.87 118.71-14.18L118.71-14.18L118.71-14.18Q117.67-14.49 116.52-14.49L116.52-14.49L116.52-14.49Q115.00-14.49 114.13-13.90L114.13-13.90L114.13-13.90Q113.25-13.32 113.25-12.35L113.25-12.35L113.25-12.35Q113.25-11.89 113.38-11.53L113.38-11.53L113.38-11.53Q113.51-11.18 113.88-10.84L113.88-10.84L113.88-10.84Q114.26-10.51 114.94-10.17L114.94-10.17L114.94-10.17Q115.62-9.82 116.75-9.41L116.75-9.41L116.75-9.41Q118.08-8.90 119.00-8.37L119.00-8.37L119.00-8.37Q119.92-7.84 120.47-7.25L120.47-7.25L120.47-7.25Q121.03-6.65 121.27-5.96L121.27-5.96L121.27-5.96Q121.51-5.27 121.51-4.44L121.51-4.44L121.51-4.44Q121.51-3.31 121.07-2.44L121.07-2.44L121.07-2.44Q120.64-1.56 119.86-0.95L119.86-0.95L119.86-0.95Q119.09-0.34 118.01-0.03L118.01-0.03L118.01-0.03Q116.93 0.28 115.67 0.28L115.67 0.28L115.67 0.28Q113.99 0.28 112.61-0.17L112.61-0.17L112.61-0.17Q111.23-0.62 110.29-1.36L110.29-1.36" fill="#ffffff" stroke="none" stroke-width="none" transform="translate(-86.45498657226562,6.284884821573897)" style="fill: rgb(255, 255, 255);"></path></g><g class="path" style="transform: scale(0.91); transform-origin: 42.47px -1.76511px; animation: 1s linear -0.165s infinite normal forwards running breath-c763e7b9-a61b-4014-828a-50d6d5db2e7b;"><path d="M122.89-14.17L122.89-16.10L134.96-16.10L134.96-14.17L130.02-14.17L130.02 0L127.83 0L127.83-14.17L122.89-14.17" fill="#ffffff" stroke="none" stroke-width="none" transform="translate(-86.45498657226562,6.284884821573897)" style="fill: rgb(255, 255, 255);"></path></g><g class="path" style="transform: scale(0.91); transform-origin: 55.04px -1.65012px; animation: 1s linear -0.11s infinite normal forwards running breath-c763e7b9-a61b-4014-828a-50d6d5db2e7b;"><path d="M135.91 0.18L134.04-0.57L140.35-16.10L142.74-16.10L148.95-0.57L146.95 0.23L145.15-4.37L137.70-4.37L135.91 0.18zM141.43-13.94L138.39-6.21L144.44-6.21L141.43-13.94" fill="#ffffff" stroke="none" stroke-width="none" transform="translate(-86.45498657226562,6.284884821573897)" style="fill: rgb(255, 255, 255);"></path></g><g class="path" style="transform: scale(0.91); transform-origin: 70.51px -1.71511px; animation: 1s linear -0.055s infinite normal forwards running breath-c763e7b9-a61b-4014-828a-50d6d5db2e7b;"><path d="M162.68-0.69L160.63 0.28L158.63-4.09L158.63-4.09Q157.87-5.73 156.72-6.42L156.72-6.42L156.72-6.42Q155.57-7.11 153.78-7.11L153.78-7.11L153.43-7.11L153.43 0L151.25 0L151.25-16.05L151.25-16.05Q152.49-16.17 153.58-16.23L153.58-16.23L153.58-16.23Q154.68-16.28 155.96-16.28L155.96-16.28L155.96-16.28Q157.44-16.28 158.54-15.97L158.54-15.97L158.54-15.97Q159.64-15.66 160.38-15.09L160.38-15.09L160.38-15.09Q161.12-14.51 161.49-13.73L161.49-13.73L161.49-13.73Q161.87-12.95 161.87-12.01L161.87-12.01L161.87-12.01Q161.87-10.33 160.87-9.30L160.87-9.30L160.87-9.30Q159.87-8.28 157.99-7.77L157.99-7.77L157.99-7.77Q158.45-7.57 158.84-7.30L158.84-7.30L158.84-7.30Q159.23-7.04 159.57-6.66L159.57-6.66L159.57-6.66Q159.92-6.28 160.25-5.75L160.25-5.75L160.25-5.75Q160.59-5.22 160.93-4.46L160.93-4.46L162.68-0.69zM155.96-14.44L155.96-14.44L155.96-14.44Q155.18-14.44 154.56-14.42L154.56-14.42L154.56-14.42Q153.94-14.40 153.43-14.35L153.43-14.35L153.43-8.95L155.96-8.95L155.96-8.95Q157.62-8.95 158.65-9.68L158.65-9.68L158.65-9.68Q159.69-10.42 159.69-11.80L159.69-11.80L159.69-11.80Q159.69-12.95 158.72-13.70L158.72-13.70L158.72-13.70Q157.76-14.44 155.96-14.44" fill="#ffffff" stroke="none" stroke-width="none" transform="translate(-86.45498657226562,6.284884821573897)" style="fill: rgb(255, 255, 255);"></path></g><g class="path" style="transform: scale(0.91); transform-origin: 82.49px -1.76511px; animation: 1s linear 0s infinite normal forwards running breath-c763e7b9-a61b-4014-828a-50d6d5db2e7b;"><path d="M162.91-14.17L162.91-16.10L174.98-16.10L174.98-14.17L170.04-14.17L170.04 0L167.85 0L167.85-14.17L162.91-14.17" fill="#ffffff" stroke="none" stroke-width="none" transform="translate(-86.45498657226562,6.284884821573897)" style="fill: rgb(255, 255, 255);"></path></g></g>
</g>
</g>
<style id="breath-c763e7b9-a61b-4014-828a-50d6d5db2e7b" data-anikit="">@keyframes breath-c763e7b9-a61b-4014-828a-50d6d5db2e7b
{
  0% {
    animation-timing-function: cubic-bezier(0.9647,0.2413,-0.0705,0.7911);
    transform: scale(0.9099999999999999);
  }
  51% {
    animation-timing-function: cubic-bezier(0.9226,0.2631,-0.0308,0.7628);
    transform: scale(1.02994);
  }
  100% {
    transform: scale(0.9099999999999999);
  }
}</style></svg>